<?xml version="1.0" standalone="no"?>
<!DOCTYPE svg PUBLIC "-//W3C//DTD SVG 20010904//EN"
 "http://www.w3.org/TR/2001/REC-SVG-20010904/DTD/svg10.dtd">
<svg version="1.0" xmlns="http://www.w3.org/2000/svg"
 width="256.000000pt" height="256.000000pt" viewBox="0 0 256.000000 256.000000"
 preserveAspectRatio="xMidYMid meet">
<metadata>
Created by potrace 1.14, written by Peter Selinger 2001-2017
</metadata>
<g transform="translate(0.000000,256.000000) scale(0.100000,-0.100000)"
fill="#000000" stroke="none">
<path d="M935 2142 c-27 -15 -52 -29 -55 -32 -3 -3 -27 -16 -55 -30 -27 -14
-51 -28 -53 -32 -2 -5 -10 -8 -18 -8 -8 0 -20 -5 -27 -10 -12 -11 -148 -84
-227 -123 -25 -12 -47 -23 -49 -25 -6 -4 -10 -112 -14 -409 -4 -254 -4 -253
38 -223 12 9 157 87 200 108 17 8 32 17 34 19 3 2 6 36 7 76 1 39 3 74 5 77 1
3 0 10 -1 15 -2 6 -2 28 0 50 1 22 3 56 4 75 1 37 14 46 189 137 37 20 74 41
81 48 18 19 22 315 4 315 -7 0 -35 -13 -63 -28z"/>
<path d="M1569 2103 c-1 -79 -1 -227 0 -249 1 -15 25 -35 84 -72 45 -28 87
-55 92 -59 6 -4 24 -15 40 -23 51 -26 58 -37 56 -98 -4 -177 -1 -256 11 -267
29 -26 250 -157 255 -151 6 6 15 227 12 316 0 8 2 83 4 165 4 144 3 151 -17
165 -40 28 -128 80 -137 80 -5 0 -9 5 -9 10 0 6 -4 10 -10 10 -5 0 -36 17 -67
37 -32 21 -67 43 -78 49 -46 25 -70 40 -89 57 -11 9 -24 17 -29 17 -4 0 -28
14 -52 30 -24 17 -48 30 -54 30 -6 0 -11 -21 -12 -47z"/>
<path d="M1010 1753 c-19 -8 -37 -18 -40 -22 -3 -3 -39 -24 -80 -45 -41 -22
-77 -41 -80 -43 -6 -5 -8 -254 -2 -271 2 -7 49 -40 104 -74 55 -33 105 -66
112 -73 9 -9 11 -49 8 -148 l-4 -135 29 -14 c15 -8 66 -39 113 -67 47 -29 88
-55 91 -56 5 -4 47 16 176 84 34 18 64 39 67 47 3 9 6 71 6 139 0 97 3 125 15
135 8 7 15 9 15 5 0 -5 8 -1 18 7 9 8 55 35 102 59 47 24 87 45 89 46 6 3 8
272 2 281 -3 5 -56 39 -118 77 l-112 68 -38 -20 c-21 -11 -73 -39 -116 -62
-42 -22 -82 -41 -88 -41 -5 0 -37 18 -70 40 -33 22 -63 40 -65 40 -3 0 -25 14
-49 30 -24 17 -45 30 -47 29 -2 0 -19 -7 -38 -16z"/>
<path d="M900 839 c-41 -22 -101 -54 -132 -71 -38 -20 -55 -35 -51 -44 3 -8
10 -14 16 -14 6 0 68 -36 139 -80 70 -44 132 -80 137 -80 5 0 11 -4 13 -8 2
-5 56 -40 122 -80 l118 -71 87 46 c47 26 109 59 136 75 28 15 70 38 95 50 25
13 47 25 50 28 3 3 44 25 92 50 89 45 105 63 68 75 -11 3 -20 11 -20 16 0 5
-5 9 -10 9 -6 0 -53 27 -105 60 -94 60 -122 69 -142 49 -6 -6 -35 -23 -64 -38
-30 -15 -80 -42 -112 -59 -31 -18 -62 -32 -68 -32 -6 0 -52 25 -102 56 -51 30
-101 60 -112 67 -11 7 -22 15 -25 19 -17 22 -59 15 -130 -23z"/>
</g>
</svg>
